PathFileType	3	(X/Y/Z)	F:\ViconData\AntennenMessung\Messung1\Session1\ID07.trc
DataRate	CameraRate	NumFrames	NumMarkers	Units	OrigDataRate	OrigDataStartFrame	OrigNumFrames
120.0	120.0	5	70	mm	120.0	536	856	
Frame#	Time	Ashort			Along			Atop			A4			Bshort			Blong			Btop			B4			Cshort			Clong			Ctop			C4			Dshort			Dlong			Dtop			D4			Eshort			Elong			Etop			E4			Fshort			Flong			Ftop			F4			Gshort			Glong			Gtop			G4			Hshort			Hlong			Htop			H4			I1			I2			I3			I4			I5			WandAshort			WandAlong			WandAtop			WandA4			WandA15			WandBshort			WandB4			WandB5			WandBtop			WandBlong			WandCshort			WandClong			WandCtop			WandC4			WandC5			Acenter			Aantenna			Bcenter			Bantenna			Ccenter			Cantenna			Dcenter			Dantenna			Ecenter			Eantenna			Fcenter			Fantenna			Gcenter			Gantenna			Hcenter			Hantenna			Icenter			Iantenna			
		X1	Y1	Z1	X2	Y2	Z2	X3	Y3	Z3	X4	Y4	Z4	X5	Y5	Z5	X6	Y6	Z6	X7	Y7	Z7	X8	Y8	Z8	X9	Y9	Z9	X10	Y10	Z10	X11	Y11	Z11	X12	Y12	Z12	X13	Y13	Z13	X14	Y14	Z14	X15	Y15	Z15	X16	Y16	Z16	X17	Y17	Z17	X18	Y18	Z18	X19	Y19	Z19	X20	Y20	Z20	X21	Y21	Z21	X22	Y22	Z22	X23	Y23	Z23	X24	Y24	Z24	X25	Y25	Z25	X26	Y26	Z26	X27	Y27	Z27	X28	Y28	Z28	X29	Y29	Z29	X30	Y30	Z30	X31	Y31	Z31	X32	Y32	Z32	X33	Y33	Z33	X34	Y34	Z34	X35	Y35	Z35	X36	Y36	Z36	X37	Y37	Z37	X38	Y38	Z38	X39	Y39	Z39	X40	Y40	Z40	X41	Y41	Z41	X42	Y42	Z42	X43	Y43	Z43	X44	Y44	Z44	X45	Y45	Z45	X46	Y46	Z46	X47	Y47	Z47	X48	Y48	Z48	X49	Y49	Z49	X50	Y50	Z50	X51	Y51	Z51	X52	Y52	Z52	X53	Y53	Z53	X54	Y54	Z54	X55	Y55	Z55	X56	Y56	Z56	X57	Y57	Z57	X58	Y58	Z58	X59	Y59	Z59	X60	Y60	Z60	X61	Y61	Z61	X62	Y62	Z62	X63	Y63	Z63	X64	Y64	Z64	X65	Y65	Z65	X66	Y66	Z66	X67	Y67	Z67	X68	Y68	Z68	X69	Y69	Z69	X70	Y70	Z70	
536	4.4583333	-1038.2285	214.58894	-1644.1372	-1109.3219	203.91176	-1599.494	-1063.4866	172.94131	-1625.9377	-1054.1504	262.22729	-1634.9215	-1352.8525	235.07413	1003.9272	-1281.4218	227.25929	1052.2678	-1322.8655	194.13417	1020.7659	-1284.4969	287.83768	1052.7435	814.03613	187.70818	1209.4432	892.48785	178.2578	1179.0955	844.52972	145.41936	1198.2762	861.2934	292.15482	1167.5974	1115.9156	209.98708	-1401.8522	1056.3176	194.09628	-1460.1776	1095.1635	162.29407	-1423.6705	1069.8156	238.90901	-1425.9789	-1204.5315	1686.0259	-1563.3199	-1129.1538	1688.2839	-1606.0461	-1173.1375	1724.4805	-1581.9899	-1133.5389	1581.1239	-1603.6061	-1239.5856	1698.9823	1119.3669	-1309.3999	1698.8031	1071.9218	-1270.4403	1736.1976	1096.8521	-1245.6877	1592.8326	1110.6649	988.86786	1664.2662	1162.2767	957.30579	1700.558	1183.7408	921.79718	1662.2699	1214.7845	939.83148	1659.3672	1159.8988	999.2749	1668.4706	-1579.406	1058.8865	1670.0125	-1518.7273	1025.1169	1708.0699	-1551.1542	1059.3752	1672.2113	-1585.5211	354.74658	169.13263	20.005678	349.22437	177.19664	103.63979	352.37524	132.47516	61.443001	385.12198	173.5753	57.832298	304.90875	171.91866	53.889748																																														-1068.5355	210.03726	-1625.1058	-1073.7938	248.67145	-1624.2396	-1321.6532	231.66078	1025.0413	-1320.4021	270.3902	1029.4535	848.31641	183.57872	1196.1824	852.16193	222.33037	1194.0559	1088.8948	202.78241	-1428.296	1082.9652	241.0799	-1432.6713	-1171.9124	1687.0029	-1581.8094	-1170.6382	1648.0242	-1581.6217	-1271.0935	1698.9014	1097.9541	-1271.7762	1659.9244	1099.1061	952.78284	1705.7585	1186.8167	972.83032	1733.8951	1168.7218	1026.5844	1669.1769	-1551.6075	1028.0548	1630.2073	-1552.0619	352.26743	172.75287	57.552303	352.16351	211.57205	53.802502
537	4.4666667	-1038.2507	214.60188	-1644.1627	-1109.3315	203.82973	-1599.4727	-1063.4752	172.97369	-1625.958	-1054.1306	262.22238	-1634.9076	-1352.7349	235.23146	1003.8674	-1281.401	227.27383	1052.3066	-1322.8663	194.15984	1020.7522	-1284.3779	287.88907	1052.72	813.91803	187.79221	1209.4592	892.28143	178.25691	1179.1202	844.47064	145.48796	1198.1979	860.979	292.41815	1167.2311	1115.9064	209.96385	-1401.8275	1056.3306	194.10104	-1460.1323	1095.0576	162.1393	-1423.6466	1069.7955	238.85184	-1425.9442	-1204.5244	1686.0206	-1563.3152	-1129.1581	1688.2828	-1606.0638	-1173.1407	1724.4885	-1581.98	-1133.5345	1581.1279	-1603.5896	-1239.5958	1698.991	1119.3644	-1309.3558	1698.7384	1071.9021	-1270.3433	1736.0812	1096.8175	-1245.7306	1592.9498	1110.6895	988.85004	1664.2621	1162.2444	957.28912	1700.5229	1183.7537	921.72736	1662.3062	1214.7313	939.80499	1659.3829	1159.8684	999.27045	1668.4537	-1579.381	1058.8839	1670.0066	-1518.7251	1025.111	1708.0714	-1551.1633	1059.3789	1672.2189	-1585.5374	354.75189	169.17247	20.088478	349.21573	177.19698	103.61916	352.38846	132.46765	61.585365	385.12964	173.57272	57.854073	304.88568	171.96725	53.872009																																														-1068.5548	210.00935	-1625.1097	-1073.8527	248.63771	-1624.2252	-1321.5748	231.75539	1025.0266	-1320.2444	270.48318	1029.4297	848.31329	183.60696	1196.1427	852.21942	222.3546	1194.0537	1088.8265	202.75352	-1428.3296	1082.9504	241.05455	-1432.7458	-1171.9187	1686.9991	-1581.8093	-1170.6482	1648.0203	-1581.632	-1271.0082	1698.8772	1097.9926	-1271.7047	1659.9028	1099.2235	952.70441	1705.7902	1186.8781	972.76654	1733.9523	1168.839	1026.5714	1669.1648	-1551.6025	1028.0343	1630.1948	-1552.0424	352.25885	172.78601	57.703522	352.13406	211.60629	53.965912
538	4.475	-1038.2588	214.64543	-1644.1719	-1109.3126	203.92572	-1599.5032	-1063.4857	172.96182	-1625.9467	-1054.162	262.22165	-1634.9229	-1352.668	235.27422	1003.8586	-1281.3545	227.38791	1052.2594	-1322.8409	194.17276	1020.7629	-1284.5276	287.84341	1052.7815	813.9649	187.61098	1209.429	892.30322	178.26736	1179.1406	844.52142	145.41599	1198.2924	861.12244	292.32993	1167.291	1115.9156	210.00359	-1401.8386	1056.3405	194.07588	-1460.1272	1095.1516	162.27017	-1423.6914	1069.7693	238.86522	-1425.9865	-1204.5383	1686.0103	-1563.3098	-1129.1531	1688.2688	-1606.0413	-1173.1367	1724.5035	-1582.0037	-1133.516	1581.1038	-1603.5764	-1239.5688	1698.9623	1119.3621	-1309.4039	1698.8019	1071.9283	-1270.4558	1736.2217	1096.8612	-1245.7098	1592.8641	1110.6838	988.87274	1664.2629	1162.2568	957.29816	1700.5029	1183.7833	922.4032	1662.0792	1214.8418	939.84729	1659.3881	1159.8827	999.26001	1668.4443	-1579.3583	1059.0209	1670.1781	-1518.6832	1025.098	1708.0564	-1551.1683	1059.3813	1672.2266	-1585.5286	354.73105	169.06636	20.054852	349.23288	177.19275	103.61004	352.38974	132.35652	61.708145	385.12485	173.57185	57.837513	304.91315	171.9366	53.901428																																														-1068.5648	210.07323	-1625.1195	-1073.8517	248.70363	-1624.2589	-1321.5413	231.83203	1024.9843	-1320.2047	270.56653	1029.3262	848.24738	183.522	1196.1741	852.0368	222.27763	1194.0195	1088.8514	202.76784	-1428.3182	1082.8943	241.06105	-1432.6935	-1171.9025	1686.9879	-1581.8092	-1170.62	1648.0095	-1581.6069	-1271.1044	1698.8899	1097.9424	-1271.7815	1659.912	1099.071	952.99628	1705.4403	1186.7161	972.86188	1733.597	1168.4525	1026.6307	1669.2383	-1551.5687	1028.1694	1630.2708	-1551.9707	352.24918	172.73462	57.771809	352.11401	211.55037	53.987782
539	4.4833333	-1038.2391	214.59328	-1644.1443	-1109.376	203.96803	-1599.4817	-1063.4722	172.91704	-1625.922	-1054.1664	262.17859	-1634.9637	-1352.6838	235.29648	1003.8735	-1281.4806	227.21339	1052.3472	-1322.8514	194.1315	1020.8104	-1284.364	287.89017	1052.6912	813.95331	187.6946	1209.4111	892.52393	178.25926	1179.0681	844.54041	145.38455	1198.3438	861.01178	292.33286	1167.285	1115.9084	209.98796	-1401.8262	1056.3171	194.06326	-1460.1665	1095.1429	162.28595	-1423.7242	1069.8193	238.92931	-1425.9893	-1204.5309	1686.0156	-1563.3052	-1129.1478	1688.2913	-1606.0625	-1173.1431	1724.4707	-1581.9749	-1133.5466	1581.1438	-1603.6378	-1239.5945	1698.9952	1119.3781	-1309.3842	1698.7648	1071.9148	-1270.3635	1736.0963	1096.8228	-1245.6725	1592.8457	1110.6636	988.83997	1664.2318	1162.2543	957.28088	1700.5442	1183.7395	922.03876	1662.2582	1214.8174	939.84607	1659.3557	1159.8976	999.2771	1668.4623	-1579.3844	1058.8779	1669.9976	-1518.7225	1025.1129	1708.0651	-1551.1559	1059.3843	1672.2308	-1585.5419	354.75043	169.11201	20.04022	349.22287	177.16985	103.62931	352.37021	132.48613	61.427105	385.13889	173.59225	57.8312	304.88898	171.94579	53.881317																																														-1068.5242	210.06978	-1625.1299	-1073.7778	248.70551	-1624.3064	-1321.5015	231.75662	1025.1017	-1320.1122	270.4808	1029.5182	848.28064	183.5723	1196.1543	852.07617	222.32353	1193.9324	1088.837	202.7536	-1428.3292	1082.8698	241.04726	-1432.6866	-1171.9153	1687.0001	-1581.8047	-1170.6382	1648.0215	-1581.6277	-1271.0374	1698.8912	1097.994	-1271.7432	1659.917	1099.2211	952.8512	1705.641	1186.7551	972.82678	1733.7659	1168.5626	1026.5713	1669.1653	-1551.6042	1028.0323	1630.1953	-1552.0536	352.27054	172.72704	57.541363	352.17441	211.54636	53.792896
540	4.4916667	-1038.2593	214.63872	-1644.1722	-1109.3369	203.82878	-1599.4958	-1063.4669	172.95204	-1625.9524	-1054.16	262.25366	-1634.9105	-1352.6981	235.24548	1003.8282	-1281.4148	227.30215	1052.2688	-1322.8624	194.08882	1020.8527	-1284.3501	287.93329	1052.6796	813.97198	187.73346	1209.4905	892.27728	178.33467	1179.0647	844.5166	145.42252	1198.3041	861.08319	292.36765	1167.2018	1115.908	209.97627	-1401.8401	1056.3239	194.06117	-1460.1292	1095.2117	162.3727	-1423.7426	1069.8025	238.84613	-1425.9427	-1204.531	1686.0182	-1563.3173	-1129.1591	1688.303	-1606.075	-1173.1411	1724.4857	-1581.9938	-1133.5345	1581.106	-1603.5995	-1239.5963	1698.9994	1119.3715	-1309.4019	1698.7997	1071.9188	-1270.4913	1736.2719	1096.8792	-1245.6475	1592.7826	1110.645	988.84119	1664.2104	1162.261	957.30157	1700.4872	1183.7838	921.95154	1662.3009	1214.8027	939.82074	1659.4127	1159.8733	999.25763	1668.4832	-1579.4077	1058.8929	1670.0162	-1518.724	1025.1097	1708.0647	-1551.156	1059.376	1672.1697	-1585.4114	354.76547	169.17256	20.088352	349.2562	177.20827	103.58643	352.40887	132.52763	61.428642	385.12518	173.55617	57.852371	304.90082	171.9227	53.91782																																														-1068.579	210.0275	-1625.1145	-1073.9047	248.6523	-1624.2417	-1321.5009	231.76907	1025.0281	-1320.1013	270.50684	1029.3207	848.26941	183.61681	1196.1641	852.07721	222.36971	1193.9928	1088.8722	202.75494	-1428.2881	1082.861	241.04704	-1432.5985	-1171.9084	1687.0071	-1581.8236	-1170.6265	1648.0284	-1581.6466	-1271.1112	1698.9092	1097.9481	-1271.7579	1659.9304	1099.0634	952.78461	1705.6824	1186.8661	972.78979	1733.8292	1168.7401	1026.5732	1669.1853	-1551.6118	1028.0399	1630.2156	-1552.0687	352.29388	172.77754	57.54747	352.18295	211.59734	53.804195
